<?xml version="1.0" encoding="UTF-8"?>
<svg width="1054px" height="1054px" viewBox="0 0 1054 1054" version="1.1" xmlns="http://www.w3.org/2000/svg" xmlns:xlink="http://www.w3.org/1999/xlink">
    <!-- Generator: Sketch 48.1 (47250) - http://www.bohemiancoding.com/sketch -->
    <title>App Icon</title>
    <desc>Created with Sketch.</desc>
    <defs>
        <linearGradient x1="50%" y1="0%" x2="50%" y2="100%" id="linearGradient-1">
            <stop stop-color="#FFFFFF" offset="0%"></stop>
            <stop stop-color="#FFFFFF" stop-opacity="0" offset="100%"></stop>
        </linearGradient>
        <circle id="path-2" cx="500" cy="500" r="500"></circle>
        <filter x="-4.0%" y="-3.5%" width="108.0%" height="108.0%" filterUnits="objectBoundingBox" id="filter-3">
            <feMorphology radius="7.5" operator="dilate" in="SourceAlpha" result="shadowSpreadOuter1"></feMorphology>
            <feOffset dx="0" dy="5" in="shadowSpreadOuter1" result="shadowOffsetOuter1"></feOffset>
            <feGaussianBlur stdDeviation="10" in="shadowOffsetOuter1" result="shadowBlurOuter1"></feGaussianBlur>
            <feComposite in="shadowBlurOuter1" in2="SourceAlpha" operator="out" result="shadowBlurOuter1"></feComposite>
            <feColorMatrix values="0 0 0 0 0   0 0 0 0 0   0 0 0 0 0  0 0 0 0.5 0" type="matrix" in="shadowBlurOuter1"></feColorMatrix>
        </filter>
    </defs>
    <g id="Page-1" stroke="none" stroke-width="1" fill="none" fill-rule="evenodd">
        <g id="App-Icon" transform="translate(27.000000, 22.000000)">
            <g id="Oval">
                <use fill="black" fill-opacity="1" filter="url(#filter-3)" xlink:href="#path-2"></use>
                <use fill="#78D115" fill-rule="evenodd" xlink:href="#path-2"></use>
                <use stroke="#FFFFFF" stroke-width="15" fill-opacity="0.3" fill="url(#linearGradient-1)" fill-rule="evenodd" xlink:href="#path-2"></use>
            </g>
            <path d="M394.427012,451.320864 L358.148282,487.599594 L474.557375,604.008687 L733.46,345.106062 L697.310721,308.956783 L474.557375,531.580678 L394.427012,451.320864 Z M681.776563,681.776563 L319.345251,681.776563 L319.345251,319.345251 L578.247876,319.345251 L578.247876,267.5 L319.345251,267.5 C290.768873,267.5 267.5,290.768873 267.5,319.345251 L267.5,681.776563 C267.5,710.223489 290.768873,733.46 319.345251,733.46 L681.776563,733.46 C710.223489,733.46 733.46,710.223489 733.46,681.776563 L733.46,474.557375 L681.776563,474.557375 L681.776563,681.776563 Z" id="Fill-1" fill="#FFFFFF"></path>
        </g>
    </g>
</svg>